<?xml version="1.0" encoding="UTF-8"?>
<svg
   xmlns="http://www.w3.org/2000/svg"
   width="55.285061mm"
   height="63.837688mm"
   viewBox="0 0 55.285061 63.837688"
   version="1.1">
  <g transform="translate(-77.35747,-116.58116)">
    <path
       fill="#005cb1"
       transform="translate(38.278328,96.834996)"
       d="m 66.721673,83.583853 -27.64253,-15.959422 -1e-6,-31.918844 27.642529,-15.959423 27.642531,15.959422 0,31.918844 z" />
    <path
       fill="#ffffff"
       d="M 86.715178,163.44121 97.709327,134.5989 h 3.347763 l 11.03377,28.84231 h -3.92223 l -2.75349,-7.54734 H 93.351286 l -2.73368,7.54734 z m 7.785046,-10.6772 h 9.785786 l -4.892894,-13.4505 z M 120.05419,134.5989 v 28.84231 H 116.231 V 134.5989 Z" />
    <path
       fill="#ffffff"
       d="m 120.55175,130.07587 a 2.3388693,2.3388693 0 0 1 -2.33887,2.33887 2.3388693,2.3388693 0 0 1 -2.33887,-2.33887 2.3388693,2.3388693 0 0 1 2.33887,-2.33887 2.3388693,2.3388693 0 0 1 2.33887,2.33887 z" />
  </g>
</svg>
